<?xml version="1.0" standalone="no"?>
<!DOCTYPE svg PUBLIC "-//W3C//DTD SVG 20010904//EN"
 "http://www.w3.org/TR/2001/REC-SVG-20010904/DTD/svg10.dtd">
<svg version="1.0" xmlns="http://www.w3.org/2000/svg"
 width="256.000000pt" height="256.000000pt" viewBox="0 0 256.000000 256.000000"
 preserveAspectRatio="xMidYMid meet">
<metadata>
Created by potrace 1.14, written by Peter Selinger 2001-2017
</metadata>
<g transform="translate(0.000000,256.000000) scale(0.100000,-0.100000)"
fill="#000000" stroke="none">
<path d="M116 2540 c-50 -25 -93 -74 -106 -119 -15 -53 -13 -2218 1 -2277 15
-57 74 -119 128 -134 27 -7 399 -9 1158 -8 1267 3 1163 -4 1226 87 l32 46 3
1120 c2 842 0 1131 -9 1163 -15 54 -76 117 -126 131 -26 7 -408 11 -1153 11
-1084 -1 -1116 -1 -1154 -20z"/>
</g>
</svg>
